<svg width="186" height="36" viewBox="0 0 186 36" fill="none" xmlns="http://www.w3.org/2000/svg">
<path d="M84.2367 30.1704H68.2447V9.69792H84.2367V14.5512L75.1637 14.6657V17.5147H82.7024V22.2105L75.1637 22.3536V25.5748H84.2367V30.1704Z" fill="#D2EAFF"/>
<path d="M107.388 30.1704H100.189L98.4924 21.0938L97.2384 30.1704H90.3193L85.4509 9.71224H91.3078L93.801 23.7709L95.9992 11.6736L101.605 11.6163L103.966 23.7709L106.783 9.65497H112.139L107.388 30.1704Z" fill="#D2EAFF"/>
<path d="M129.606 30.1704H123.302L121.875 25.4889H116.402L115.098 30.1704H109.527L114.702 9.59771H123.104L129.606 30.1704ZM120.813 21.0079L119.161 14.5325L117.42 21.0079H120.813Z" fill="#D2EAFF"/>
<path d="M137.021 30.1847H130.898L130.32 9.66929H140.252C142.533 9.66929 144.333 9.93653 145.651 10.471C146.969 10.9959 147.903 11.7738 148.454 12.8046C149.015 13.8354 149.295 15.1095 149.295 16.6271C149.295 17.9633 149.035 19.1133 148.513 20.0773C147.992 21.0317 147.131 21.7762 145.932 22.3107L149.989 30.1274H143.866L140.252 23.2412H137.021V30.1847ZM137.286 18.4452L141.447 18.4309C141.899 18.4309 142.219 18.3403 142.406 18.1589C142.592 17.9776 142.701 17.7342 142.73 17.4288C142.77 17.1138 142.789 16.7654 142.789 16.3837C142.789 16.0305 142.715 15.7442 142.568 15.5247C142.43 15.2956 142.253 15.1238 142.037 15.0093C141.83 14.8948 141.634 14.8375 141.447 14.8375H137.345L137.286 18.4452Z" fill="#D2EAFF"/>
<path d="M161.23 30.1704H151.124V9.64066H161.053C163.846 9.64066 166.005 10.4758 167.53 12.146C169.064 13.8163 169.831 16.2453 169.831 19.4331C169.831 21.2274 169.595 22.7974 169.123 24.1432C168.651 25.4794 168.011 26.5913 167.205 27.4789C166.408 28.3665 165.494 29.0346 164.461 29.4832C163.438 29.9222 162.361 30.1513 161.23 30.1704ZM161.068 25.1596C161.127 25.1596 161.269 25.1358 161.496 25.088C161.732 25.0403 162.012 24.921 162.337 24.7301C162.661 24.5392 162.976 24.2386 163.281 23.8282C163.595 23.4178 163.856 22.8595 164.063 22.1532C164.279 21.4374 164.387 20.5307 164.387 19.4331C164.387 18.8127 164.318 18.1923 164.181 17.5719C164.043 16.942 163.836 16.3694 163.561 15.854C163.286 15.3386 162.937 14.9234 162.514 14.6084C162.101 14.2935 161.614 14.136 161.053 14.136H156.568V25.1596H161.068Z" fill="#D2EAFF"/>
<path d="M177.06 30.6142C176.244 30.6142 175.422 30.5474 174.596 30.4137C172.708 30.0511 171.026 29.2589 169.551 28.0372L171.808 23.728C172.28 24.0143 172.752 24.3006 173.224 24.587C173.696 24.8638 174.286 25.1215 174.994 25.3601C175.703 25.5987 176.416 25.718 177.134 25.718C177.606 25.718 178.038 25.5843 178.432 25.3171C178.835 25.0403 179.037 24.6872 179.037 24.2577V24.1575C179.037 23.9571 179.002 23.7471 178.933 23.5276C178.776 23.0026 178.083 22.5397 176.853 22.1389C172.85 20.7836 170.849 18.6838 170.849 15.8397C170.849 14.5798 171.193 13.4631 171.882 12.4896C172.57 11.5066 173.519 10.7382 174.729 10.1847C175.939 9.63111 177.33 9.35433 178.904 9.35433C181.304 9.35433 183.487 10.0367 185.454 11.4016L186 11.7309L183.477 15.9685L182.046 15.1095C181.909 15.0141 181.687 14.8995 181.382 14.7659C181.078 14.6323 180.699 14.513 180.246 14.408C179.804 14.303 179.312 14.2505 178.771 14.2505C178.25 14.2505 177.901 14.3555 177.724 14.5655C177.547 14.7659 177.458 15.0093 177.458 15.2956L177.473 15.5104C177.473 15.6917 177.507 15.8683 177.576 16.0401C177.645 16.2119 177.842 16.4075 178.166 16.6271C178.491 16.837 179.012 17.0852 179.73 17.3715C180.369 17.6101 181.033 17.906 181.722 18.2591C182.41 18.6027 183.049 19.0274 183.64 19.5333C184.24 20.0391 184.726 20.6595 185.1 21.3944C185.474 22.1198 185.661 22.9835 185.661 23.9857C185.661 25.9804 184.874 27.5839 183.3 28.796C181.736 30.0081 179.656 30.6142 177.06 30.6142Z" fill="#D2EAFF"/>
<path fill-rule="evenodd" clip-rule="evenodd" d="M54.1411 30.1847H48.0187V23.2412C49.0408 20.9402 51.8333 15.0043 54.826 9.66929H57.3719C59.6537 9.66929 61.4535 9.93653 62.7714 10.471C64.0893 10.9959 65.0237 11.7738 65.5744 12.8046C66.135 13.8354 66.4154 15.1095 66.4154 16.6271C66.4154 17.9633 66.1547 19.1133 65.6335 20.0773C65.1122 21.0317 64.2516 21.7762 63.0517 22.3107L67.1087 30.1274H60.9863L57.3719 23.2412H54.1411V30.1847ZM58.5669 18.4309L54.4066 18.4452L54.4656 14.8375H58.5669C58.7538 14.8375 58.9505 14.8948 59.157 15.0093C59.3734 15.1238 59.5504 15.2956 59.6881 15.5247C59.8356 15.7442 59.9094 16.0305 59.9094 16.3837C59.9094 16.7654 59.8897 17.1138 59.8504 17.4288C59.8209 17.7342 59.7127 17.9776 59.5258 18.1589C59.3389 18.3403 59.0193 18.4309 58.5669 18.4309Z" fill="#D2EAFF"/>
<path d="M25.4699 0.832592L26.2331 1.18731C25.9653 1.63399 25.6708 2.36969 25.3494 3.39442C25.0548 4.41915 24.7335 5.64095 24.3854 7.0598C24.0372 8.45239 23.6757 9.98948 23.3008 11.6711C22.9527 13.3527 22.5912 15.0606 22.2163 16.7947C21.8681 18.5026 21.52 20.1974 21.1719 21.879C20.8238 23.5343 20.5024 25.0583 20.2078 26.4509C21.1183 24.743 22.0422 22.9957 22.9795 21.209C23.9167 19.396 24.8272 17.6093 25.7109 15.8488C26.6214 14.0884 27.4917 12.4068 28.3219 10.804C29.1788 9.17495 29.9822 7.69041 30.732 6.35038C31.4818 4.98407 32.1647 3.81482 32.7806 2.84264C33.3965 1.84419 33.9187 1.09534 34.3472 0.596117C34.9095 0.596117 35.4986 0.609254 36.1146 0.635529C36.7573 0.635529 37.3732 0.688079 37.9623 0.79318C38.5782 0.898281 39.154 1.05593 39.6896 1.26613C40.2251 1.47633 40.667 1.7785 41.0151 2.17263C40.8544 2.75068 40.6536 3.59149 40.4126 4.69504C40.1984 5.77232 39.9574 7.00725 39.6896 8.39984C39.4218 9.79242 39.154 11.2901 38.8862 12.8929C38.6184 14.4694 38.364 16.0459 38.123 17.6224C37.9088 19.1726 37.7079 20.6703 37.5205 22.1155C37.3598 23.5343 37.2393 24.7824 37.1589 25.8597C37.9623 24.2306 38.7389 22.3519 39.4887 20.2237C40.2385 18.0691 41.0151 15.862 41.8185 13.6023C42.6486 11.3164 43.5457 9.06985 44.5098 6.86274C45.4738 4.65563 46.5584 2.67185 47.7634 0.911419C48.5668 0.648668 49.3969 0.425329 50.2539 0.241402C51.1376 0.0574769 52.0079 -0.0213483 52.8648 0.00492649C53.7218 0.00492649 54.5519 0.123165 55.3553 0.359641C56.1854 0.569841 56.9218 0.937693 57.5645 1.4632C56.4398 2.85578 55.3285 4.43229 54.2306 6.19272C53.1326 7.95316 52.0481 9.81869 50.9769 11.7893C49.9325 13.7337 48.9149 15.7569 47.9241 17.8589C46.9601 19.9346 46.0362 22.0104 45.1525 24.0861C44.2688 26.1618 43.452 28.1982 42.7022 30.1951C41.9524 32.1657 41.2829 34.0312 40.6938 35.7917C39.9707 35.818 39.1138 35.8705 38.123 35.9493C37.1322 36.0282 36.1681 36.015 35.2309 35.9099C34.3204 35.8311 33.5304 35.5946 32.8609 35.2005C32.2182 34.8326 31.8701 34.1889 31.8165 33.2693C31.7094 31.5614 31.6023 30.0243 31.4952 28.658C31.4149 27.2654 31.3479 25.8991 31.2943 24.5591C31.2408 23.219 31.214 21.8264 31.214 20.3813C31.2408 18.9362 31.3211 17.3071 31.455 15.4941C30.0357 19.0938 28.6031 22.4702 27.157 25.6232C25.7109 28.7762 24.3586 31.9292 23.1 35.0822C22.3234 35.0034 21.5602 34.9509 20.8104 34.9246C20.0873 34.9246 19.3777 34.8589 18.6814 34.7275C17.9852 34.6224 17.3157 34.4385 16.673 34.1758C16.0571 33.913 15.4813 33.4926 14.9458 32.9146C14.6512 31.1804 14.5307 29.1178 14.5843 26.7268C14.6646 24.3357 14.8387 21.8658 15.1064 19.3172C15.401 16.7422 15.7491 14.2329 16.1508 11.7893C16.5525 9.34574 16.9408 7.19118 17.3157 5.32564C15.0931 5.64095 13.3123 6.10076 11.9733 6.70509C10.6344 7.28314 9.58997 7.99257 8.84016 8.83337C8.11713 9.67418 7.59493 10.6464 7.27359 11.7499C6.97902 12.8272 6.77818 14.0227 6.67106 15.3365C6.1087 15.3365 5.57312 15.3365 5.06432 15.3365C4.5823 15.3102 4.15383 15.2708 3.77893 15.2182C3.0559 15.0869 2.4132 14.8767 1.85084 14.5876C1.28848 14.2723 0.846628 13.8651 0.52528 13.3658C0.203932 12.8666 0.0298689 12.2754 0.00308988 11.5923C-0.0236891 10.9091 0.123595 10.1077 0.444943 9.18809C0.873407 8.00571 1.56966 6.92843 2.5337 5.95625C3.49775 4.95779 4.63586 4.07757 5.94803 3.31559C7.2602 2.55362 8.71965 1.92301 10.3264 1.42378C11.9331 0.898281 13.5934 0.530429 15.3073 0.320229C17.0211 0.0837525 18.735 0.0049265 20.4489 0.0837509C22.1895 0.162577 23.8632 0.412191 25.4699 0.832592Z" fill="url(#paint0_linear_737_49)"/>
<defs>
<linearGradient id="paint0_linear_737_49" x1="28.7823" y1="0" x2="28.7823" y2="36" gradientUnits="userSpaceOnUse">
<stop stop-color="#47D4F3"/>
<stop offset="1" stop-color="#4799F3"/>
</linearGradient>
</defs>
</svg>
